HIERARCHY
ROOT Hips
{
    OFFSET   0.000000   0.000000   0.000000
    CHANNELS 6 Xposition Yposition Zposition Zrotation Xrotation Yrotation
    JOINT Chest
    {
        OFFSET   0.000000   8.007230   0.000000
        CHANNELS 3 Zrotation Xrotation Yrotation
        JOINT Chest2
        {
            OFFSET   0.000000  22.077100   0.000000
            CHANNELS 3 Zrotation Xrotation Yrotation
            JOINT Neck
            {
                OFFSET   0.000000  23.255100   0.000000
                CHANNELS 3 Zrotation Xrotation Yrotation
                JOINT Head
                {
                    OFFSET   0.000000  14.370100   1.956600
                    CHANNELS 3 Zrotation Xrotation Yrotation
                    End Site
                    {
                        OFFSET   0.000000  19.566000   0.000000
                    }
                }
            }
            JOINT LeftCollar
            {
                OFFSET   3.911900  19.017000  -0.467063
                CHANNELS 3 Zrotation Xrotation Yrotation
                JOINT LeftShoulder
                {
                    OFFSET  10.383700   0.000000   0.000000
                    CHANNELS 3 Zrotation Xrotation Yrotation
                    JOINT LeftElbow
                    {
                        OFFSET  26.662100   0.001193   0.000980
                        CHANNELS 3 Zrotation Xrotation Yrotation
                        JOINT LeftWrist
                        {
                            OFFSET  28.869000  -0.000059  -0.000082
                            CHANNELS 3 Zrotation Xrotation Yrotation
                            JOINT LeftFinger0
                            {
                                OFFSET   2.044650  -2.323450   3.252850
                                CHANNELS 3 Zrotation Xrotation Yrotation
                                JOINT LeftFinger01
                                {
                                    OFFSET   3.088130   0.000000   0.000000
                                    CHANNELS 3 Zrotation Xrotation Yrotation
                                    JOINT LeftFinger02
                                    {
                                        OFFSET   2.639460   0.000000   0.000000
                                        CHANNELS 3 Zrotation Xrotation Yrotation
                                        End Site
                                        {
                                            OFFSET   2.582190   0.000000   0.000000
                                        }
                                    }
                                }
                            }
                            JOINT LeftFinger1
                            {
                                OFFSET   8.364480   0.000000   3.252850
                                CHANNELS 3 Zrotation Xrotation Yrotation
                                JOINT LeftFinger11
                                {
                                    OFFSET   4.646930   0.000000   0.000000
                                    CHANNELS 3 Zrotation Xrotation Yrotation
                                    JOINT LeftFinger12
                                    {
                                        OFFSET   2.323470   0.000000   0.000000
                                        CHANNELS 3 Zrotation Xrotation Yrotation
                                        End Site
                                        {
                                            OFFSET   2.273050   0.000000   0.000000
                                        }
                                    }
                                }
                            }
                            JOINT LeftFinger2
                            {
                                OFFSET   8.364490   0.000016   1.078090
                                CHANNELS 3 Zrotation Xrotation Yrotation
                                JOINT LeftFinger21
                                {
                                    OFFSET   5.111610   0.000000   0.000000
                                    CHANNELS 3 Zrotation Xrotation Yrotation
                                    JOINT LeftFinger22
                                    {
                                        OFFSET   2.788150   0.000016   0.000000
                                        CHANNELS 3 Zrotation Xrotation Yrotation
                                        End Site
                                        {
                                            OFFSET   2.727660   0.000000   0.000000
                                        }
                                    }
                                }
                            }
                            JOINT LeftFinger3
                            {
                                OFFSET   7.899780   0.000015  -1.078090
                                CHANNELS 3 Zrotation Xrotation Yrotation
                                JOINT LeftFinger31
                                {
                                    OFFSET   4.646930   0.000000   0.000000
                                    CHANNELS 3 Zrotation Xrotation Yrotation
                                    JOINT LeftFinger32
                                    {
                                        OFFSET   2.323470   0.000000   0.000000
                                        CHANNELS 3 Zrotation Xrotation Yrotation
                                        End Site
                                        {
                                            OFFSET   2.273050   0.000000   0.000000
                                        }
                                    }
                                }
                            }
                            JOINT LeftFinger4
                            {
                                OFFSET   7.435090   0.000000  -3.252850
                                CHANNELS 3 Zrotation Xrotation Yrotation
                                JOINT LeftFinger41
                                {
                                    OFFSET   3.717550   0.000000   0.000000
                                    CHANNELS 3 Zrotation Xrotation Yrotation
                                    JOINT LeftFinger42
                                    {
                                        OFFSET   1.858770   0.000000   0.000000
                                        CHANNELS 3 Zrotation Xrotation Yrotation
                                        End Site
                                        {
                                            OFFSET   1.818440   0.000000   0.000000
                                        }
                                    }
                                }
                            }
                        }
                    }
                }
            }
            JOINT RightCollar
            {
                OFFSET  -3.911910  19.017000  -0.467062
                CHANNELS 3 Zrotation Xrotation Yrotation
                JOINT RightShoulder
                {
                    OFFSET -10.383700   0.000014   0.000000
                    CHANNELS 3 Zrotation Xrotation Yrotation
                    JOINT RightElbow
                    {
                        OFFSET -26.662100   0.001225   0.001091
                        CHANNELS 3 Zrotation Xrotation Yrotation
                        JOINT RightWrist
                        {
                            OFFSET -28.869000  -0.000020  -0.000085
                            CHANNELS 3 Zrotation Xrotation Yrotation
                            JOINT RightFinger0
                            {
                                OFFSET  -2.044650  -2.323490   3.252850
                                CHANNELS 3 Zrotation Xrotation Yrotation
                                JOINT RightFinger01
                                {
                                    OFFSET  -3.088130   0.000000   0.000000
                                    CHANNELS 3 Zrotation Xrotation Yrotation
                                    JOINT RightFinger02
                                    {
                                        OFFSET  -2.639460   0.000000   0.000000
                                        CHANNELS 3 Zrotation Xrotation Yrotation
                                        End Site
                                        {
                                            OFFSET  -2.582190   0.000000   0.000000
                                        }
                                    }
                                }
                            }
                            JOINT RightFinger1
                            {
                                OFFSET  -8.364480   0.000000   3.252850
                                CHANNELS 3 Zrotation Xrotation Yrotation
                                JOINT RightFinger11
                                {
                                    OFFSET  -4.646930   0.000000   0.000000
                                    CHANNELS 3 Zrotation Xrotation Yrotation
                                    JOINT RightFinger12
                                    {
                                        OFFSET  -2.323470   0.000000   0.000000
                                        CHANNELS 3 Zrotation Xrotation Yrotation
                                        End Site
                                        {
                                            OFFSET  -2.273050   0.000000   0.000000
                                        }
                                    }
                                }
                            }
                            JOINT RightFinger2
                            {
                                OFFSET  -8.364480   0.000000   1.078090
                                CHANNELS 3 Zrotation Xrotation Yrotation
                                JOINT RightFinger21
                                {
                                    OFFSET  -5.111620   0.000000   0.000000
                                    CHANNELS 3 Zrotation Xrotation Yrotation
                                    JOINT RightFinger22
                                    {
                                        OFFSET  -2.788160   0.000000   0.000000
                                        CHANNELS 3 Zrotation Xrotation Yrotation
                                        End Site
                                        {
                                            OFFSET  -2.727660   0.000000   0.000000
                                        }
                                    }
                                }
                            }
                            JOINT RightFinger3
                            {
                                OFFSET  -7.899780   0.000000  -1.078090
                                CHANNELS 3 Zrotation Xrotation Yrotation
                                JOINT RightFinger31
                                {
                                    OFFSET  -4.646930   0.000000   0.000000
                                    CHANNELS 3 Zrotation Xrotation Yrotation
                                    JOINT RightFinger32
                                    {
                                        OFFSET  -2.323470   0.000000   0.000000
                                        CHANNELS 3 Zrotation Xrotation Yrotation
                                        End Site
                                        {
                                            OFFSET  -2.273050   0.000000   0.000000
                                        }
                                    }
                                }
                            }
                            JOINT RightFinger4
                            {
                                OFFSET  -7.435090   0.000000  -3.252850
                                CHANNELS 3 Zrotation Xrotation Yrotation
                                JOINT RightFinger41
                                {
                                    OFFSET  -3.717550   0.000000   0.000000
                                    CHANNELS 3 Zrotation Xrotation Yrotation
                                    JOINT RightFinger42
                                    {
                                        OFFSET  -1.858760   0.000000   0.000000
                                        CHANNELS 3 Zrotation Xrotation Yrotation
                                        End Site
                                        {
                                            OFFSET  -1.818440   0.000000   0.000000
                                        }
                                    }
                                }
                            }
                        }
                    }
                }
            }
        }
    }
    JOINT LeftHip
    {
        OFFSET   9.783030   0.000000   0.000000
        CHANNELS 3 Zrotation Xrotation Yrotation
        JOINT LeftKnee
        {
            OFFSET   0.000063 -41.789100   0.000608
            CHANNELS 3 Zrotation Xrotation Yrotation
            JOINT LeftAnkle
            {
                OFFSET   0.000048 -41.133200  -0.000184
                CHANNELS 3 Zrotation Xrotation Yrotation
                JOINT LeftToe
                {
                    OFFSET   0.000000  -6.358960  14.674500
                    CHANNELS 3 Zrotation Xrotation Yrotation
                    End Site
                    {
                        OFFSET   0.000000   0.000000   3.913200
                    }
                }
            }
        }
    }
    JOINT RightHip
    {
        OFFSET  -9.783030   0.000000   0.000000
        CHANNELS 3 Zrotation Xrotation Yrotation
        JOINT RightKnee
        {
            OFFSET   0.000071 -41.789100   0.001239
            CHANNELS 3 Zrotation Xrotation Yrotation
            JOINT RightAnkle
            {
                OFFSET   0.000037 -41.133200  -0.000166
                CHANNELS 3 Zrotation Xrotation Yrotation
                JOINT RightToe
                {
                    OFFSET   0.000000  -6.358960  14.674500
                    CHANNELS 3 Zrotation Xrotation Yrotation
                    End Site
                    {
                        OFFSET   0.000000   0.000000   3.913200
                    }
                }
            }
        }
    }
}
MOTION
Frames: 4
Frame Time:   0.016667
  1.412060  89.444500   1.186110  -1.076810 -11.552300  -2.659290   1.310470   8.919080  -1.223500   2.869230  17.805000  -2.706120  -1.959420   0.880867   0.030194  -3.222480   1.779700  16.301900  -9.804000  -2.092400  11.462900 -68.295500  35.862800 -21.313600   7.787020   1.202930 -61.451900   8.170110 -23.907500 -18.072900  40.920900  27.789600 -66.684800   8.438300  -0.000043   0.000106   9.219150   0.000037  -0.003092   7.425600   0.050030   0.383365  -0.000000  -0.000720  -0.001765  -0.000000  -0.000336  -0.001224  -7.229660  -0.279722   2.204160  -7.235140   0.001395  -0.002584  -4.818610   0.000987  -0.000917   9.971290   0.384302   2.188410  -0.000000  -0.001823  -0.002044  -0.000000  -0.000964  -0.001857   3.617970   0.346358   5.477980   0.000000   0.000167  -0.000936   0.004789   0.000659  -0.001665   5.381220  -0.039561  12.124900  65.851300  21.140900  19.801500  -7.240040   0.316498  59.941900 -26.618800 -29.179900  28.646300 -40.722400  26.688700  65.301100  -1.965940   0.001600  -0.000404  -5.982970  -0.007114   0.000244   3.532170   0.146713   2.369620   2.892430   0.005181   0.003174   2.024710   0.005065   0.000200   4.905800  -0.008209  -0.117583   4.905860   0.003350   0.001811   3.267300   0.002275   0.001274   4.126570  -0.131500  -1.845830   4.128680  -0.001182   0.001785   2.749690   0.006096   0.000000   3.318130  -0.341415  -5.848350   5.003510  -0.000169   0.001504   3.332340   0.008054   0.002331   2.259700  13.773500   1.001550  -0.347992   1.770140  13.087600  -2.740660  -4.310790   1.754280   0.000000   0.000000  -0.000000  -1.782950  14.221600  -4.886060   0.493741   0.762331 -12.325900   0.902004  -2.392550   0.421575  -0.000000   0.000000   0.000000
  1.415990  89.443400   1.190690  -1.064030 -11.517800  -2.576540   1.303040   8.885650  -1.212310   2.851100  17.738700  -2.680920  -1.922440   0.637440   0.021491  -3.160460   1.288010  16.468900  -9.836320  -2.140960  11.490700 -68.354700  35.851500 -21.221300   7.880850   1.341030 -61.480000   8.076380 -24.135200 -18.156800  40.857800  27.578800 -66.441300   8.082020  -0.000087   0.000063   9.041020   0.000087  -0.003094   7.365580   0.061334   0.475017  -0.000000  -0.000763  -0.001728  -0.000000  -0.000355  -0.001210  -7.249990  -0.296103   2.325810  -7.256100   0.001345  -0.002573  -4.832560   0.000962  -0.000926   9.863610   0.401739   2.309950  -0.000000  -0.001917  -0.002028  -0.000000  -0.001046  -0.001832   3.455830   0.335246   5.532860   0.000000   0.000106  -0.000910   0.004606   0.000614  -0.001537   5.432150  -0.073512  12.222500  65.844000  21.139800  19.664300  -7.234920   0.303347  59.930400 -26.655200 -29.079400  28.636900 -40.774800  26.789700  65.390400  -2.100450   0.001576  -0.000421  -6.050220  -0.007316   0.000361   3.597050   0.152436   2.423740   2.945760   0.005148   0.003298   2.062040   0.005084   0.000241   4.881410  -0.007875  -0.091242   4.881510   0.003310   0.001805   3.251090   0.002258   0.001269   4.039900  -0.134480  -1.905430   4.042190  -0.001134   0.001867   2.692090   0.006238  -0.000000   3.284820  -0.341827  -5.835100   4.953850  -0.000161   0.001640   3.299250   0.008176   0.002352   2.260820  13.730200   0.997202  -0.346351   1.775420  13.015700  -2.737480  -4.309860   1.751940  -0.000000   0.000000  -0.000000  -1.771720  14.197000  -4.900650   0.492073   0.771308 -12.361400   0.899908  -2.412400   0.385596   0.000000   0.000000   0.000000
  1.419620  89.442900   1.193830  -1.051140 -11.467600  -2.494440   1.293950   8.843430  -1.194570   2.828210  17.655000  -2.641780  -1.884900   0.404767   0.013343  -3.097300   0.818045  16.585700  -9.861900  -2.178070  11.480700 -68.397000  35.849800 -21.142000   7.945930   1.470210 -61.494000   7.949780 -24.353000 -18.249000  40.802300  27.477300 -66.350200   7.973320  -0.000083   0.000061   8.986680   0.000100  -0.003099   7.339560   0.064403   0.500698  -0.000000  -0.000809  -0.001700  -0.000000  -0.000374  -0.001182  -7.247310  -0.301614   2.369380  -7.253750   0.001288  -0.002564  -4.831000   0.000917  -0.000932   9.815300   0.407408   2.353530  -0.000000  -0.002033  -0.002023  -0.000000  -0.001107  -0.001802   3.391270   0.329654   5.545960   0.000000   0.000054  -0.000879   0.004394   0.000549  -0.001412   5.481150  -0.092043  12.273400  65.849400  21.110600  19.533200  -7.231100   0.330476  59.927200 -26.686900 -29.117500  28.619600 -40.780700  26.754300  65.320900  -2.050790   0.001562  -0.000437  -6.025400  -0.007517   0.000467   3.604470   0.148961   2.396230   2.951710   0.005104   0.003413   2.066200   0.005117   0.000283   4.849080  -0.013587  -0.160151   4.849180   0.003283   0.001813   3.229570   0.002242   0.001271   3.984550  -0.140562  -2.028440   3.987040  -0.001094   0.001945   2.655390   0.006377   0.000051   3.255040  -0.342208  -5.871130   4.909400  -0.000147   0.001777   3.269660   0.008286   0.002381   2.260910  13.668300   0.998675  -0.340649   1.781080  12.940700  -2.733440  -4.308640   1.750290   0.000000   0.000000  -0.000000  -1.764630  14.149400  -4.922600   0.496842   0.790709 -12.392800   0.898381  -2.434220   0.352148  -0.000000   0.000000   0.000000
  1.424430  89.442800   1.196110  -1.038510 -11.409800  -2.414520   1.284570   8.797560  -1.178250   2.804900  17.563900  -2.605390  -1.851180   0.189394   0.006011  -3.040760   0.382877  16.673300  -9.884130  -2.206750  11.462000 -68.414800  35.851700 -21.095500   7.996470   1.582500 -61.500700   7.813640 -24.555100 -18.350200  40.771700  27.435700 -66.328800   7.957800  -0.000079   0.000060   8.978910   0.000107  -0.003103   7.319670   0.065786   0.512396  -0.000000  -0.000854  -0.001673  -0.000000  -0.000391  -0.001153  -7.240920  -0.305187   2.400350  -7.247380   0.001230  -0.002552  -4.826770   0.000872  -0.000936   9.785900   0.411511   2.384450  -0.000000  -0.002148  -0.002018  -0.000000  -0.001166  -0.001770   3.357190   0.327392   5.563190  -0.000000   0.000000  -0.000847   0.004174   0.000485  -0.001286   5.523790  -0.104439  12.306300  65.864200  21.073400  19.416300  -7.221020   0.388583  59.922200 -26.715600 -29.200800  28.596900 -40.795900  26.686100  65.212300  -1.944620   0.001545  -0.000451  -5.972330  -0.007718   0.000572   3.611920   0.145487   2.352190   2.957650   0.005061   0.003528   2.070370   0.005151   0.000325   4.828860  -0.020294  -0.240114   4.828980   0.003261   0.001822   3.216120   0.002224   0.001273   3.960900  -0.146473  -2.113450   3.963590  -0.001055   0.002025   2.639800   0.006515   0.000128   3.237830  -0.342580  -5.907170   4.883780  -0.000134   0.001918   3.252600   0.008396   0.002408   2.261200  13.600400   1.000120  -0.333363   1.784720  12.870000  -2.729620  -4.305670   1.746380  -0.000000   0.000000  -0.000000  -1.762180  14.092600  -4.936720   0.501963   0.809741 -12.426500   0.896941  -2.454140   0.320639   0.000000   0.000000   0.000000
